<svg width="33" height="26" viewBox="0 0 33 26" fill="none" xmlns="http://www.w3.org/2000/svg">
<path d="M4.8913 0.428467V21.8959C4.8913 22.2562 4.74816 22.6018 4.49335 22.8566C4.23855 23.1114 3.89296 23.2546 3.53261 23.2546C3.17226 23.2546 2.82667 23.1114 2.57187 22.8566C2.31706 22.6018 2.17391 22.2562 2.17391 21.8959V5.86325H0V21.8959C0.00106085 22.8324 0.373586 23.7304 1.03585 24.3926C1.69811 25.0549 2.59603 25.4274 3.53261 25.4285H29.0761C30.0127 25.4274 30.9106 25.0549 31.5728 24.3926C32.2351 23.7304 32.6076 22.8324 32.6087 21.8959V0.428467H4.8913ZM30.4348 21.8959C30.4344 22.2561 30.2911 22.6014 30.0364 22.8561C29.7817 23.1109 29.4363 23.2541 29.0761 23.2546H6.79348C6.97334 22.8242 7.06572 22.3623 7.06522 21.8959V2.60238H30.4348V21.8959Z" fill="white"/>
<path d="M19.0224 4.77661H9.23975V15.6462H19.0224V4.77661ZM16.8484 13.4723H11.4137V6.95052H16.8484V13.4723Z" fill="white"/>
<path d="M28.2615 4.77661H21.1963V6.95052H28.2615V4.77661Z" fill="white"/>
<path d="M28.2615 9.12378H21.1963V11.2977H28.2615V9.12378Z" fill="white"/>
<path d="M28.2615 13.4722H21.1963V15.6461H28.2615V13.4722Z" fill="white"/>
</svg>
