<svg width="25" height="25" viewBox="0 0 25 25" fill="none" xmlns="http://www.w3.org/2000/svg">
<path d="M23.2479 15.6445L19.8981 13.4526L21.1879 11.0881C21.4989 10.4977 21.6619 9.84051 21.6628 9.17315V5.42468C21.6654 4.37069 21.3601 3.33889 20.7845 2.45597C20.2088 1.57305 19.3879 0.877457 18.4224 0.4546C17.457 0.0317427 16.389 -0.0999677 15.3498 0.0756422C14.3105 0.251252 13.3452 0.726537 12.5723 1.44313L13.7045 2.66539C14.2401 2.17022 14.9085 1.84208 15.6278 1.7212C16.3471 1.60032 17.0861 1.69197 17.7541 1.9849C18.4221 2.27783 18.9901 2.75931 19.3884 3.37031C19.7868 3.98131 19.9982 4.69528 19.9968 5.42468V9.17315C19.9966 9.56175 19.9035 9.94467 19.7253 10.29L17.6992 14.0045L22.3358 17.0384C22.6418 17.2387 22.893 17.5123 23.0664 17.8343C23.2398 18.1564 23.33 18.5167 23.3287 18.8825V21.668H19.5803V23.334H24.9947V18.8824C24.9964 18.2399 24.8375 17.6071 24.5324 17.0417C24.2274 16.4762 23.7858 15.9959 23.2479 15.6445V15.6445Z" fill="white"/>
<path d="M15.7509 17.3104L12.4011 15.1186L13.6908 12.754C14.0019 12.1636 14.1649 11.5064 14.1657 10.8391V7.09062C14.1646 5.65382 13.5937 4.27612 12.5781 3.25976C11.5625 2.2434 10.1853 1.67138 8.7485 1.66919C5.76446 1.66919 3.33681 4.10127 3.33681 7.09062V10.8391C3.33363 11.5061 3.49483 12.1637 3.80615 12.7537L5.10291 15.131L1.77256 17.3104C1.23528 17.6613 0.79413 18.1408 0.489135 18.7053C0.18414 19.2699 0.0249571 19.9017 0.026031 20.5434L0 24.9999H17.4977V20.5483C17.4994 19.9058 17.3404 19.2731 17.0354 18.7076C16.7303 18.1421 16.2888 17.6618 15.7509 17.3104V17.3104ZM15.8317 23.334H1.67567L1.69181 20.5483C1.69055 20.1826 1.78073 19.8223 1.95414 19.5002C2.12756 19.1781 2.37872 18.9045 2.68479 18.7042L7.30175 15.6831L5.26868 11.9559C5.09243 11.6101 5.00127 11.2272 5.0028 10.8391V7.09062C5.0028 6.09646 5.39772 5.14302 6.10069 4.44005C6.80367 3.73708 7.75711 3.34215 8.75126 3.34215C9.74541 3.34215 10.6989 3.73708 11.4018 4.44005C12.1048 5.14302 12.4997 6.09646 12.4997 7.09062V10.8391C12.4996 11.2277 12.4065 11.6106 12.2282 11.9559L10.2022 15.6704L14.8387 18.7043C15.1448 18.9046 15.3959 19.1782 15.5693 19.5003C15.7428 19.8223 15.8329 20.1826 15.8317 20.5484V23.334Z" fill="white"/>
</svg>
