<svg width="52" height="52" viewBox="0 0 52 52" fill="none" xmlns="http://www.w3.org/2000/svg">
<path d="M41.167 23.8335H15.4703L23.3353 14.3869C23.7031 13.9444 23.88 13.3739 23.8272 12.801C23.7744 12.2281 23.4961 11.6996 23.0537 11.3319C22.6112 10.9641 22.0407 10.7872 21.4678 10.84C20.8949 10.8928 20.3664 11.1711 19.9987 11.6135L9.16533 24.6135C9.09244 24.7169 9.02726 24.8256 8.97033 24.9385C8.97033 25.0469 8.97033 25.1119 8.81866 25.2202C8.72045 25.4686 8.66903 25.7331 8.66699 26.0002C8.66903 26.2673 8.72045 26.5318 8.81866 26.7802C8.81866 26.8885 8.81866 26.9535 8.97033 27.0619C9.02726 27.1748 9.09244 27.2835 9.16533 27.3869L19.9987 40.3869C20.2024 40.6314 20.4575 40.8281 20.7458 40.9629C21.0342 41.0978 21.3487 41.1674 21.667 41.1669C22.1732 41.1678 22.6639 40.9915 23.0537 40.6685C23.2731 40.4866 23.4544 40.2632 23.5873 40.0112C23.7203 39.7591 23.8022 39.4832 23.8283 39.1995C23.8545 38.9157 23.8244 38.6295 23.7398 38.3574C23.6552 38.0852 23.5178 37.8325 23.3353 37.6135L15.4703 28.1669H41.167C41.7416 28.1669 42.2927 27.9386 42.6991 27.5323C43.1054 27.1259 43.3337 26.5748 43.3337 26.0002C43.3337 25.4256 43.1054 24.8745 42.6991 24.4681C42.2927 24.0618 41.7416 23.8335 41.167 23.8335Z" fill="#131A22"/>
</svg>
