<svg width="26" height="25" viewBox="0 0 26 25" fill="none" xmlns="http://www.w3.org/2000/svg">
<path d="M13.5723 0.312774C13.2875 0.109351 12.9462 0 12.5961 0C12.2461 0 11.9048 0.109351 11.6199 0.312774L0 8.61274V25H25.1923V8.61274L13.5723 0.312774ZM23.5128 20.1029L17.0032 15.9182L23.5128 10.8552V20.1029ZM12.5961 1.6794L23.0105 9.11837L15.5055 14.9554L12.5961 13.085L9.68675 14.9554L2.18181 9.11837L12.5961 1.6794ZM1.67949 10.8552L8.18907 15.9182L1.67949 20.1029V10.8552ZM23.5128 23.3205H1.67949V22.0995L12.5961 15.0816L23.5128 22.0995V23.3205Z" fill="white"/>
</svg>
