<svg width="50" height="50" viewBox="0 0 50 50" fill="none" xmlns="http://www.w3.org/2000/svg">
<path d="M0 24.5278C0 29.379 1.43853 34.1212 4.13369 38.1548C6.82884 42.1883 10.6596 45.3321 15.1414 47.1886C19.6233 49.045 24.5551 49.5308 29.313 48.5844C34.0709 47.6379 38.4414 45.3019 41.8716 41.8716C45.3019 38.4413 47.638 34.0709 48.5844 29.313C49.5308 24.555 49.0451 19.6233 47.1886 15.1414C45.3322 10.6595 42.1884 6.82881 38.1548 4.13366C34.1212 1.4385 29.379 -3.05176e-05 24.5278 -3.05176e-05C18.0249 0.00730896 11.7904 2.59384 7.19214 7.19211C2.59387 11.7904 0.00733843 18.0249 0 24.5278ZM46.1701 24.5278C46.1701 28.8082 44.9008 32.9925 42.5227 36.5516C40.1446 40.1106 36.7646 42.8846 32.81 44.5226C28.8554 46.1607 24.5038 46.5892 20.3057 45.7542C16.1075 44.9191 12.2512 42.8579 9.22449 39.8312C6.19777 36.8044 4.13655 32.9482 3.30148 28.75C2.46641 24.5518 2.895 20.2003 4.53304 16.2457C6.17109 12.2911 8.94503 8.91105 12.5041 6.53297C16.0631 4.15489 20.2474 2.8856 24.5278 2.8856C30.2657 2.8921 35.7667 5.17434 39.824 9.23164C43.8813 13.2889 46.1636 18.7899 46.1701 24.5278ZM23.5076 13.8888C23.6416 13.7548 23.8006 13.6485 23.9757 13.576C24.1507 13.5035 24.3384 13.4662 24.5278 13.4662C24.7173 13.4662 24.9049 13.5035 25.08 13.576C25.255 13.6485 25.4141 13.7548 25.5481 13.8888L33.7098 22.0506C33.8438 22.1845 33.9501 22.3436 34.0226 22.5186C34.0951 22.6937 34.1324 22.8813 34.1324 23.0708C34.1324 23.2603 34.0951 23.4479 34.0226 23.6229C33.9501 23.798 33.8438 23.957 33.7098 24.091C33.5758 24.225 33.4168 24.3313 33.2417 24.4038C33.0667 24.4763 32.8791 24.5136 32.6896 24.5136C32.5001 24.5136 32.3125 24.4763 32.1374 24.4038C31.9624 24.3313 31.8033 24.225 31.6693 24.091L25.9707 18.3923L25.9707 34.1466C25.9707 34.5292 25.8186 34.8962 25.5481 35.1668C25.2775 35.4374 24.9105 35.5894 24.5278 35.5894C24.1452 35.5894 23.7782 35.4374 23.5076 35.1668C23.237 34.8962 23.085 34.5292 23.085 34.1466L23.085 18.3923L17.3863 24.091C17.2524 24.225 17.0933 24.3313 16.9182 24.4038C16.7432 24.4763 16.5556 24.5136 16.3661 24.5136C16.1766 24.5136 15.989 24.4763 15.814 24.4038C15.6389 24.3313 15.4798 24.225 15.3459 24.091C15.2119 23.957 15.1056 23.798 15.0331 23.6229C14.9606 23.4479 14.9233 23.2603 14.9233 23.0708C14.9233 22.8813 14.9606 22.6937 15.0331 22.5186C15.1056 22.3436 15.2119 22.1845 15.3459 22.0506L23.5076 13.8888Z" fill="black"/>
</svg>
