<svg width="27" height="26" viewBox="0 0 27 26" fill="none" xmlns="http://www.w3.org/2000/svg">
<path d="M13.0243 0C10.4484 0 7.93024 0.744454 5.7884 2.13922C3.64656 3.53399 1.9772 5.51642 0.991424 7.83584C0.00564323 10.1553 -0.252282 12.7075 0.250265 15.1697C0.752811 17.632 1.99326 19.8938 3.81474 21.669C5.63623 23.4442 7.95694 24.6531 10.4834 25.1429C13.0099 25.6327 15.6286 25.3813 18.0085 24.4205C20.3884 23.4598 22.4225 21.8329 23.8537 19.7455C25.2848 17.658 26.0487 15.2039 26.0487 12.6934C26.0487 11.0265 25.7118 9.37587 25.0572 7.83584C24.4027 6.2958 23.4433 4.8965 22.2339 3.71781C21.0245 2.53912 19.5887 1.60413 18.0085 0.966227C16.4283 0.328324 14.7347 0 13.0243 0ZM18.2341 13.9627H13.0243C12.6789 13.9627 12.3476 13.829 12.1034 13.5909C11.8591 13.3529 11.7219 13.03 11.7219 12.6934V7.61603C11.7219 7.27938 11.8591 6.95652 12.1034 6.71847C12.3476 6.48043 12.6789 6.34669 13.0243 6.34669C13.3698 6.34669 13.701 6.48043 13.9453 6.71847C14.1895 6.95652 14.3268 7.27938 14.3268 7.61603V11.424H18.2341C18.5795 11.424 18.9108 11.5578 19.155 11.7958C19.3993 12.0339 19.5365 12.3567 19.5365 12.6934C19.5365 13.03 19.3993 13.3529 19.155 13.5909C18.9108 13.829 18.5795 13.9627 18.2341 13.9627Z" fill="#4858AD"/>
</svg>
