<svg width="56" height="47" viewBox="0 0 56 47" fill="none" xmlns="http://www.w3.org/2000/svg">
<path d="M42.0005 17.3121V22.9194C41.9974 26.0323 40.8901 29.0166 38.9217 31.2178C36.9532 33.4189 34.2843 34.657 31.5005 34.6606H5.87192L10.0612 29.976L7.94004 27.604L3.75065 32.2885L3.33674 32.7513L0.189941 36.2701L7.12948 45.0001L9.37178 42.7714L5.59095 38.0152H31.5005C38.9443 38.0152 45.0005 31.2431 45.0005 22.9194V13.9575L42.0005 17.3121Z" fill="black"/>
<path d="M2.99999 22.0806C3.00314 18.9678 4.11039 15.9834 6.07884 13.7823C8.04728 11.5812 10.7162 10.343 13.5 10.3395H39.1286L34.9393 15.0241L37.0605 17.396L41.2498 12.7115L41.6358 12.28L44.8106 8.72993L37.871 0L35.6287 2.22871L39.4095 6.98491H13.5C6.05623 6.98491 0 13.757 0 22.0806V31.0738L2.99999 27.7192V22.0806Z" fill="black"/>
<path d="M14.232 29V17.832H20.712V19.32H15.928V22.584H20.248V24.056H15.928V27.512H20.712V29H14.232ZM25.2901 22.296L24.4421 20.216H24.2341L24.3621 22.328V29H22.7301V17.832H24.6821L28.0101 24.536L28.8741 26.616H29.0821L28.9541 24.504V17.832H30.5861V29H28.6181L25.2901 22.296Z" fill="black"/>
</svg>
