<svg width="56" height="47" viewBox="0 0 56 47" fill="none" xmlns="http://www.w3.org/2000/svg">
<path d="M42.0005 17.3121V22.9194C41.9974 26.0323 40.8901 29.0166 38.9217 31.2178C36.9532 33.4189 34.2843 34.657 31.5005 34.6606H5.87192L10.0612 29.976L7.94004 27.604L3.75065 32.2885L3.33674 32.7513L0.189941 36.2701L7.12948 45.0001L9.37178 42.7714L5.59095 38.0152H31.5005C38.9443 38.0152 45.0005 31.2431 45.0005 22.9194V13.9575L42.0005 17.3121Z" fill="black"/>
<path d="M2.99999 22.0806C3.00314 18.9678 4.11039 15.9834 6.07884 13.7823C8.04728 11.5812 10.7162 10.343 13.5 10.3395H39.1286L34.9393 15.0241L37.0605 17.396L41.2498 12.7115L41.6358 12.28L44.8106 8.72993L37.871 0L35.6287 2.22871L39.4095 6.98491H13.5C6.05623 6.98491 0 13.757 0 22.0806V31.0738L2.99999 27.7192V22.0806Z" fill="black"/>
<path d="M14.232 29V17.832H20.552V19.32H15.928V22.584H20.024V24.056H15.928V29H14.232ZM24.0824 29H22.3864V17.832H26.8024C27.7624 17.832 28.4824 18.12 28.9624 18.696C29.453 19.2613 29.6984 20.0773 29.6984 21.144C29.6984 22.008 29.5384 22.7067 29.2184 23.24C28.8984 23.7733 28.4184 24.1307 27.7784 24.312L29.9064 29H28.0184L26.0824 24.44H24.0824V29ZM26.6584 23.016C27.0637 23.016 27.3677 22.9147 27.5704 22.712C27.7837 22.4987 27.8904 22.1573 27.8904 21.688V20.648C27.8904 20.1787 27.7837 19.8427 27.5704 19.64C27.3677 19.4267 27.0637 19.32 26.6584 19.32H24.0824V23.016H26.6584Z" fill="black"/>
</svg>
