<svg width="38" height="38" viewBox="0 0 38 38" fill="none" xmlns="http://www.w3.org/2000/svg">
<path d="M2.72597 0C1.22046 0 0 1.22046 0 2.72597C0 4.23148 1.22046 5.45194 2.72597 5.45194H35.274C36.7795 5.45194 38 4.23148 38 2.72597C38 1.22046 36.7795 0 35.274 0H2.72597ZM2.72597 16.1923C1.22046 16.1923 0 17.4127 0 18.9182C0 20.4237 1.22046 21.6442 2.72597 21.6442H35.274C36.7795 21.6442 38 20.4237 38 18.9182C38 17.4127 36.7795 16.1923 35.274 16.1923H2.72597ZM2.72597 32.5481C1.22046 32.5481 0 33.7685 0 35.274C0 36.7795 1.22046 38 2.72597 38H35.274C36.7795 38 38 36.7795 38 35.274C38 33.7685 36.7795 32.5481 35.274 32.5481H2.72597Z" fill="white"/>
<path d="M2.72597 0C1.22046 0 0 1.22046 0 2.72597C0 4.23148 1.22046 5.45194 2.72597 5.45194H35.274C36.7795 5.45194 38 4.23148 38 2.72597C38 1.22046 36.7795 0 35.274 0H2.72597ZM2.72597 16.1923C1.22046 16.1923 0 17.4127 0 18.9182C0 20.4237 1.22046 21.6442 2.72597 21.6442H35.274C36.7795 21.6442 38 20.4237 38 18.9182C38 17.4127 36.7795 16.1923 35.274 16.1923H2.72597ZM2.72597 32.5481C1.22046 32.5481 0 33.7685 0 35.274C0 36.7795 1.22046 38 2.72597 38H35.274C36.7795 38 38 36.7795 38 35.274C38 33.7685 36.7795 32.5481 35.274 32.5481H2.72597Z" fill="white"/>
</svg>
